<?xml version="1.0" standalone="no"?>
<!DOCTYPE svg PUBLIC "-//W3C//DTD SVG 20010904//EN"
 "http://www.w3.org/TR/2001/REC-SVG-20010904/DTD/svg10.dtd">
<svg version="1.0" xmlns="http://www.w3.org/2000/svg"
 width="539.000000pt" height="539.000000pt" viewBox="0 0 539.000000 539.000000"
 preserveAspectRatio="xMidYMid meet">
<metadata>
Created by potrace 1.11, written by Peter Selinger 2001-2013
</metadata>
<g transform="translate(0.000000,539.000000) scale(0.100000,-0.100000)"
fill="#000000" stroke="none">
<path d="M2146 4768 c-28 -9 -73 -20 -101 -24 -58 -7 -207 -49 -250 -69 -34
-16 -105 -85 -87 -85 7 0 12 -11 12 -24 0 -33 -50 -78 -89 -81 -39 -3 -40 10
-1 30 17 9 30 20 30 26 0 10 -13 5 -35 -13 -5 -5 -35 -23 -65 -41 -63 -37
-100 -67 -150 -119 -66 -69 -90 -101 -90 -119 0 -10 -9 -20 -20 -24 -11 -3
-26 -21 -34 -38 -29 -62 -67 -173 -81 -232 -15 -71 -19 -322 -5 -380 5 -22 6
-43 1 -48 -4 -4 -2 -36 6 -70 7 -34 13 -84 13 -112 0 -27 5 -57 10 -65 8 -12
10 -12 10 -1 0 12 3 11 18 -2 9 -8 43 -27 75 -42 31 -15 59 -31 62 -34 2 -4 7
-30 10 -57 6 -39 4 -54 -8 -66 -9 -9 -12 -19 -7 -24 16 -16 15 -85 -1 -98 -28
-21 -49 -60 -49 -92 0 -30 38 -93 73 -122 10 -9 14 -25 12 -48 -2 -20 1 -49 5
-66 6 -20 5 -37 -3 -50 -9 -16 -9 -22 1 -25 18 -7 15 -57 -7 -81 -21 -25 -41
-28 -59 -10 -7 7 -12 8 -12 2 0 -6 5 -15 12 -22 9 -9 9 -12 1 -12 -7 0 -15 5
-18 10 -10 17 -38 12 -31 -6 6 -16 -10 -54 -28 -66 -6 -4 -12 -12 -12 -18 -1
-5 -2 -14 -3 -19 0 -5 -16 -15 -33 -22 -18 -7 -49 -30 -68 -49 -19 -20 -52
-47 -72 -59 -21 -12 -38 -26 -38 -31 0 -4 -13 -13 -29 -20 -16 -6 -35 -25 -41
-41 -7 -16 -18 -30 -24 -30 -26 -3 -33 -5 -63 -18 -18 -7 -33 -20 -33 -28 0
-9 5 -11 13 -7 8 5 8 2 -2 -9 -18 -22 -91 -24 -91 -2 0 8 -7 15 -15 15 -11 0
-15 -11 -15 -40 0 -36 -2 -40 -25 -40 l-25 0 0 -975 0 -975 2000 0 2000 0 0
855 0 855 -80 0 c-64 0 -80 3 -80 15 0 11 -11 15 -40 15 -29 0 -40 -4 -40 -15
0 -12 -20 -15 -120 -15 -102 0 -120 -2 -120 -15 0 -13 -12 -15 -72 -13 -46 2
-73 7 -76 16 -2 8 6 12 25 11 l28 -1 -25 -8 c-24 -8 -23 -8 8 -9 32 -1 32 -1
32 49 l0 50 -40 0 -40 0 0 40 0 40 -40 0 c-36 0 -40 3 -40 25 0 25 -1 25 -80
25 -79 0 -80 0 -80 -25 0 -16 -6 -25 -15 -25 -11 0 -15 11 -15 40 0 36 -2 40
-25 40 -22 0 -25 4 -25 40 l0 40 -40 0 c-29 0 -40 -4 -40 -15 0 -11 -11 -15
-40 -15 -35 0 -40 -3 -40 -22 -1 -21 -2 -21 -11 -5 -7 12 -7 22 0 31 11 13 4
56 -10 56 -5 0 -9 -7 -9 -15 0 -8 -5 -15 -10 -15 -6 0 -10 6 -9 13 1 6 1 24 0
39 -1 20 -5 25 -20 21 -10 -3 -22 1 -27 8 -5 8 -2 11 8 6 20 -7 38 11 38 41 0
13 4 21 9 17 5 -3 12 -1 16 5 3 6 -4 10 -17 10 -26 1 -58 22 -58 39 0 6 -5 11
-11 11 -6 0 -7 5 -2 13 11 17 12 97 1 97 -12 0 -4 78 9 91 12 12 6 77 -7 92
-7 8 -40 -83 -40 -113 0 -10 -7 -23 -15 -30 -8 -7 -15 -18 -15 -24 0 -6 -11
-33 -25 -60 -13 -27 -21 -54 -19 -61 3 -7 -11 -28 -31 -48 -20 -20 -41 -52
-46 -71 -5 -20 -16 -42 -24 -50 -8 -8 -13 -25 -11 -38 3 -13 5 -29 5 -35 1 -7
8 -13 16 -13 8 0 19 -9 25 -20 7 -14 7 -20 0 -20 -5 0 -10 5 -10 11 0 6 -12 9
-27 8 -16 -2 -38 3 -51 10 -23 12 -23 11 -17 -23 6 -31 5 -34 -13 -29 -25 6
-46 -28 -36 -59 6 -21 6 -21 -17 1 -22 20 -25 20 -36 5 -6 -9 -16 -13 -22 -9
-7 3 -11 -2 -11 -14 0 -14 -5 -19 -15 -15 -8 4 -15 1 -15 -6 0 -9 -6 -8 -18 4
-18 15 -20 15 -35 -2 -10 -10 -17 -24 -17 -31 0 -7 -4 -10 -9 -7 -5 3 -12 -10
-16 -30 -8 -45 -26 -33 -32 22 -5 45 -10 54 -18 28 -4 -10 -11 -27 -16 -36 -5
-10 -9 -26 -10 -35 0 -16 -2 -15 -9 2 -15 35 -11 72 8 80 16 6 16 7 -2 21 -31
22 -36 17 -36 -36 0 -27 -4 -50 -10 -50 -5 0 -10 -10 -11 -22 -1 -28 -5 -16
-14 36 -5 29 -9 36 -16 25 -6 -10 -9 -5 -9 17 0 52 -28 52 -42 -1 -7 -24 -15
-42 -19 -39 -5 2 -15 -8 -23 -23 -14 -27 -15 -26 -11 32 5 62 1 57 -24 -37
l-8 -33 -8 29 c-6 20 -4 31 3 34 7 2 9 8 6 14 -4 6 -17 -2 -30 -18 -21 -26
-23 -27 -24 -9 0 11 -4 27 -10 35 -7 11 -11 9 -19 -13 -7 -18 -15 -25 -25 -21
-11 4 -21 -7 -33 -38 l-18 -43 -5 34 c-6 40 -30 55 -31 19 l0 -23 -16 23 c-8
12 -22 22 -29 22 -8 0 -14 6 -14 13 0 7 -17 23 -39 34 -31 16 -47 19 -80 13
-38 -7 -41 -6 -41 15 0 14 -7 25 -20 28 -11 3 -25 18 -30 33 -9 23 -13 26 -21
14 -8 -11 -9 -8 -5 12 6 28 -8 40 -17 16 -8 -18 -27 10 -27 40 0 12 -4 22 -10
22 -5 0 -10 -6 -10 -13 0 -8 -9 -22 -21 -32 -20 -19 -20 -19 -10 8 6 15 8 27
5 27 -4 0 -1 6 5 14 9 11 9 16 0 22 -7 4 -17 0 -24 -10 -7 -9 -19 -14 -29 -10
-17 6 -22 24 -7 24 5 0 12 7 15 16 4 12 2 15 -9 10 -9 -3 -15 0 -15 10 0 8 -5
12 -10 9 -12 -7 -42 13 -36 24 3 4 -5 13 -16 20 -19 12 -20 11 -14 -14 5 -19
3 -25 -5 -20 -7 5 -9 23 -6 47 4 27 2 38 -6 35 -7 -2 -13 -17 -15 -33 -5 -43
-17 -49 -41 -18 l-21 27 -1 -39 c-1 -23 -3 -30 -6 -16 -5 23 -23 31 -24 10 0
-7 -5 -3 -11 9 -6 13 -20 26 -32 29 -25 8 -66 50 -66 67 0 7 -9 18 -21 25 -14
9 -19 20 -16 33 3 12 -2 27 -14 38 -12 11 -17 25 -13 34 4 11 1 17 -8 17 -19
0 -41 100 -29 132 5 14 8 45 7 69 -2 35 -6 43 -19 41 -12 -2 -17 4 -17 23 0
16 -6 25 -15 25 -11 0 -15 11 -15 36 0 19 -5 44 -10 55 -21 38 -12 385 12 493
10 44 14 50 57 68 25 11 60 27 78 36 24 12 35 13 45 4 23 -19 58 -3 65 29 6
30 17 36 79 43 31 3 32 2 37 -49 7 -72 45 -192 70 -227 11 -15 39 -37 62 -48
53 -26 217 -50 325 -48 85 1 85 1 -30 8 -276 17 -340 48 -375 183 -8 32 -15
65 -15 72 0 20 34 19 50 0 14 -16 47 -20 68 -6 8 4 15 27 18 50 4 48 25 73 73
90 53 17 70 14 37 -8 -35 -23 -46 -41 -51 -82 -3 -24 0 -32 21 -39 36 -14 148
-12 162 2 29 29 -1 100 -48 116 -73 26 -3 36 77 11 39 -12 96 -77 90 -101 -5
-19 8 -25 18 -8 3 6 19 10 36 10 26 0 34 9 30 32 0 4 4 20 10 35 16 39 12 102
-7 131 -15 22 -14 24 3 20 10 -2 17 -10 15 -17 -1 -6 4 -19 12 -27 17 -16 30
-19 21 -4 -3 6 2 10 11 10 16 0 16 1 -2 15 -18 15 -17 16 16 9 54 -10 130 -45
140 -65 6 -10 10 -38 10 -63 0 -36 -3 -44 -15 -40 -10 4 -18 -3 -25 -20 -6
-16 -15 -24 -23 -20 -28 10 -30 -30 -3 -53 32 -27 32 -32 2 -92 -35 -67 -83
-107 -148 -120 -90 -18 -95 -20 -35 -16 96 6 144 37 197 125 25 41 56 107 69
146 30 95 53 130 87 137 40 7 53 -1 70 -44 11 -25 23 -39 37 -41 18 -2 23 -11
27 -48 3 -25 11 -52 19 -60 7 -8 30 -49 50 -89 50 -104 71 -115 221 -117 l115
-2 -112 7 c-89 5 -118 11 -140 27 -31 22 -82 117 -90 169 l-5 33 72 -16 c73
-16 73 -16 91 7 23 28 24 60 4 87 -26 34 -19 47 21 41 43 -7 63 -31 64 -74 0
-27 4 -32 30 -38 42 -9 76 19 85 70 4 29 8 36 15 25 14 -23 21 -7 27 69 6 67
7 71 30 71 43 0 111 -22 129 -41 16 -18 15 -20 -7 -38 -13 -11 -50 -35 -82
-53 -99 -56 -100 -58 -91 -106 l9 -42 71 34 c39 18 80 37 92 40 l21 7 -21 -73
c-11 -40 -27 -85 -36 -100 -16 -28 -94 -75 -146 -89 -25 -7 -22 -8 12 -4 59 7
112 37 139 77 12 18 34 75 50 126 23 76 32 94 50 98 21 6 23 12 23 68 0 34 -6
70 -12 79 -12 15 -124 42 -203 49 -28 3 -30 5 -25 38 5 41 5 36 0 410 -1 73
-33 181 -53 177 -5 -1 -18 20 -28 47 -17 47 -17 50 -1 62 16 12 16 14 -4 36
-12 13 -29 38 -38 55 -36 71 -130 153 -176 153 -11 0 -20 4 -20 9 0 26 -252
157 -340 176 -19 4 -45 14 -57 22 -14 9 -33 13 -48 9 -14 -4 -25 -2 -25 3 0
24 -63 32 -245 29 -147 -2 -200 -6 -239 -20z m219 -18 c-3 -5 -11 -10 -16 -10
-6 0 -7 5 -4 10 3 6 11 10 16 10 6 0 7 -4 4 -10z m-42 -7 c-7 -2 -19 -2 -25 0
-7 3 -2 5 12 5 14 0 19 -2 13 -5z m-148 -12 c10 -17 -12 -21 -25 -6 -10 12
-10 15 3 15 9 0 18 -4 22 -9z m100 -11 c-3 -5 -15 -10 -26 -10 -11 0 -17 5
-14 10 3 6 15 10 26 10 11 0 17 -4 14 -10z m-218 -30 c8 -21 8 -30 -1 -33 -6
-2 -8 -7 -5 -11 6 -6 53 11 103 36 24 13 83 12 117 0 21 -9 25 -15 21 -44 l-4
-34 39 4 c36 5 37 5 13 14 l-25 10 25 10 c40 15 42 15 46 -17 2 -16 8 -31 13
-33 15 -5 1 -32 -16 -32 -8 0 -12 3 -10 8 9 13 -109 8 -126 -6 -9 -8 -21 -11
-27 -7 -5 3 -10 1 -10 -6 0 -7 -3 -9 -7 -6 -3 4 4 19 18 33 22 24 22 26 3 16
-12 -6 -24 -9 -27 -5 -4 3 -12 1 -19 -5 -15 -12 -84 -19 -94 -9 -4 3 4 15 17
26 13 11 20 23 16 27 -15 15 -80 6 -108 -15 -15 -12 -33 -21 -39 -21 -6 0 -8
-4 -5 -10 3 -5 -1 -10 -9 -10 -24 0 -19 22 12 48 l27 24 -32 -4 c-18 -3 -33 0
-33 5 0 5 -11 6 -25 3 -14 -4 -25 -2 -25 3 0 14 68 34 88 26 9 -3 13 -3 9 2
-6 6 46 41 63 43 3 0 11 -13 17 -30z m88 9 c-10 -14 -55 -30 -66 -23 -6 3 -2
12 8 20 21 16 67 19 58 3z m230 -29 c-3 -5 -18 -10 -33 -9 -24 0 -25 1 -7 9
28 12 47 12 40 0z m-515 -30 c0 -5 -5 -10 -11 -10 -5 0 -7 5 -4 10 3 6 8 10
11 10 2 0 4 -4 4 -10z m-30 -18 c0 -7 -85 -62 -97 -62 -4 0 11 16 33 35 37 33
64 45 64 27z m70 -2 c0 -5 -4 -10 -10 -10 -5 0 -10 5 -10 10 0 6 5 10 10 10 6
0 10 -4 10 -10z m30 -64 c0 -3 -4 -8 -10 -11 -5 -3 -10 -1 -10 4 0 6 5 11 10
11 6 0 10 -2 10 -4z m747 -11 c0 -8 -4 -15 -8 -15 -11 0 -20 16 -12 24 11 11
20 7 20 -9z m121 -2 c-10 -2 -26 -2 -35 0 -10 3 -2 5 17 5 19 0 27 -2 18 -5z
m-81 -9 c-3 -3 -12 -4 -19 -1 -8 3 -5 6 6 6 11 1 17 -2 13 -5z m-237 -16 c0
-5 -16 -8 -36 -8 -19 0 -33 4 -30 9 7 10 66 9 66 -1z m-79 -46 c-13 -2 -27 0
-32 5 -6 6 3 7 23 4 28 -4 29 -6 9 -9z m133 -18 c5 -14 4 -15 -9 -4 -17 14
-19 20 -6 20 5 0 12 -7 15 -16z m181 -4 c-3 -5 -14 -10 -23 -9 -14 0 -13 2 3
9 27 11 27 11 20 0z m-115 -94 c-19 -17 -70 -30 -70 -16 0 5 12 12 28 16 15 3
32 7 37 9 19 6 19 5 5 -9z m-1150 -11 c-7 -9 -15 -13 -17 -11 -7 7 7 26 19 26
6 0 6 -6 -2 -15z m1665 -100 c67 -30 72 -36 112 -106 24 -41 54 -103 68 -138
33 -84 68 -223 63 -252 -3 -21 -6 -19 -30 23 -35 58 -72 72 -183 70 -111 -3
-132 -6 -142 -16 -5 -5 -3 -6 5 -2 23 14 12 -12 -13 -28 -29 -19 -35 -50 -7
-42 15 5 17 -1 16 -46 -2 -43 -6 -54 -23 -62 -12 -5 -21 -13 -21 -18 0 -4 -4
-8 -9 -8 -19 0 -71 -56 -74 -80 -3 -22 -9 -25 -53 -28 -30 -1 -84 8 -139 23
-49 14 -115 32 -145 39 -40 9 -49 14 -35 19 13 4 10 5 -10 4 -21 -1 -30 3 -30
13 0 19 -40 41 -60 34 -8 -4 -13 -9 -11 -13 2 -3 -26 -6 -63 -5 -46 0 -75 5
-91 17 -15 10 -26 13 -28 7 -2 -5 -15 -10 -28 -10 -13 0 -24 -4 -24 -9 0 -5
-8 -11 -17 -13 -10 -3 35 -5 100 -6 65 -1 123 -4 128 -8 6 -3 24 0 40 6 16 7
33 9 37 5 4 -4 1 -10 -7 -13 -11 -4 -11 -6 0 -14 10 -7 1 -8 -26 -4 -22 3
-102 9 -177 13 -76 3 -135 10 -132 14 3 5 -8 6 -23 4 -44 -8 -227 -24 -230
-21 -11 11 17 40 63 67 30 17 54 34 54 37 0 4 30 18 66 31 81 29 172 25 297
-11 20 -6 37 -17 37 -23 0 -17 42 -34 72 -28 15 3 35 13 46 23 11 11 33 20 49
22 15 2 31 7 35 12 4 6 13 4 22 -3 11 -9 16 -10 16 -2 0 6 9 20 21 32 l21 21
-23 44 c-26 51 -32 55 -23 17 4 -20 3 -24 -4 -14 -6 8 -21 15 -34 16 -16 1
-22 7 -20 19 2 13 -2 15 -24 10 -18 -5 -25 -3 -21 3 8 13 -15 23 -54 23 -17 0
-50 5 -75 11 -27 7 -49 8 -57 2 -6 -5 -57 -11 -112 -13 -94 -3 -142 -6 -164
-9 -6 0 -31 -19 -56 -41 -25 -22 -50 -40 -54 -40 -4 0 -31 -22 -59 -49 -48
-46 -82 -104 -82 -140 0 -10 -11 -27 -25 -39 -14 -12 -25 -26 -25 -32 0 -5 -6
-10 -12 -10 -17 -1 -83 -58 -76 -65 3 -3 17 -1 31 4 21 8 25 7 21 -3 -3 -8
-13 -16 -22 -19 -9 -3 -26 -8 -37 -13 -17 -7 -18 -6 -7 8 24 30 -3 26 -53 -8
-28 -18 -53 -34 -57 -34 -5 0 -8 15 -8 34 0 34 85 211 140 291 24 35 48 105
68 195 6 29 28 67 53 92 20 20 125 49 253 72 49 8 107 25 128 36 22 12 42 19
45 17 5 -5 182 56 210 72 17 10 17 10 -2 11 -12 0 -1 10 30 24 43 20 61 23
128 18 56 -3 77 -8 77 -18 0 -8 -10 -14 -24 -14 -35 0 -40 -15 -10 -29 48 -22
132 -10 94 14 -16 10 -1 25 25 25 13 0 34 5 47 10 45 20 154 37 208 33 32 -3
84 -19 125 -38z m-1745 6 c0 -6 -4 -13 -10 -16 -5 -3 -10 1 -10 9 0 9 5 16 10
16 6 0 10 -4 10 -9z m-23 -53 c-3 -8 -6 -5 -6 6 -1 11 2 17 5 13 3 -3 4 -12 1
-19z m1793 -383 c-13 -14 -28 -25 -33 -25 -6 0 0 11 13 25 13 14 28 25 33 25
6 0 0 -11 -13 -25z m164 -156 c21 -10 65 -84 55 -93 -2 -2 -56 -6 -119 -9
-114 -7 -115 -7 -92 12 12 11 22 22 22 26 0 15 77 75 96 75 7 0 24 -5 38 -11z
m-959 -89 c32 -5 2 -6 -80 -3 -71 3 -132 7 -134 9 -8 7 164 2 214 -6z m-294
-11 c-53 -10 -88 -32 -103 -64 -9 -19 -15 -22 -29 -15 -22 13 -15 44 16 60 30
16 83 28 125 28 33 0 33 -1 -9 -9z m184 -19 c-3 -5 2 -10 12 -10 10 0 26 -12
37 -26 l19 -26 -69 4 c-71 5 -176 -13 -227 -39 -34 -17 -43 -12 -28 15 15 29
65 62 114 78 51 15 151 18 142 4z m1150 -55 c0 -44 -2 -50 -20 -47 -11 2 -28
13 -37 25 -37 48 -49 57 -75 58 l-28 1 25 8 c14 5 50 8 80 7 l55 -2 0 -50z
m-350 34 c-55 -11 -75 -11 -75 1 0 6 25 9 58 9 56 -1 57 -1 17 -10z m229 -29
c14 -5 30 -18 36 -29 10 -20 8 -20 -33 -15 -25 4 -76 -1 -121 -10 -94 -19 -96
-19 -96 -3 0 15 43 49 74 59 33 10 112 9 140 -2z m-577 -162 c-3 -8 -6 -5 -6
6 -1 11 2 17 5 13 3 -3 4 -12 1 -19z m-1240 -740 c-3 -7 -5 -2 -5 12 0 14 2
19 5 13 2 -7 2 -19 0 -25z m2003 -268 c0 -5 -5 -10 -11 -10 -5 0 -7 5 -4 10 3
6 8 10 11 10 2 0 4 -4 4 -10z m-53 -322 c-3 -7 -5 -2 -5 12 0 14 2 19 5 13 2
-7 2 -19 0 -25z m122 -49 c-24 -15 -29 -10 -11 11 10 12 18 16 21 9 2 -6 -3
-15 -10 -20z m-1519 -5 c0 -8 -5 -12 -10 -9 -6 4 -8 11 -5 16 9 14 15 11 15
-7z m1305 -14 c3 -5 1 -10 -4 -10 -6 0 -11 5 -11 10 0 6 2 10 4 10 3 0 8 -4
11 -10z m-36 -61 c-14 -8 -29 -3 -29 11 0 4 9 6 21 3 15 -4 17 -8 8 -14z
m-119 -50 c0 -6 -4 -7 -10 -4 -5 3 -10 11 -10 16 0 6 5 7 10 4 6 -3 10 -11 10
-16z m-420 -23 c0 -8 -4 -18 -10 -21 -5 -3 -10 3 -10 14 0 12 5 21 10 21 6 0
10 -6 10 -14z m304 -11 c3 -8 1 -25 -4 -37 l-9 -23 0 22 c-1 12 -4 28 -7 37
-3 9 -2 16 4 16 5 0 12 -7 16 -15z m233 -17 c-3 -8 -6 -5 -6 6 -1 11 2 17 5
13 3 -3 4 -12 1 -19z m-210 -40 c-3 -8 -6 -5 -6 6 -1 11 2 17 5 13 3 -3 4 -12
1 -19z m-770 -40 c-3 -8 -6 -5 -6 6 -1 11 2 17 5 13 3 -3 4 -12 1 -19z m1930
-64 c-3 -3 -12 -4 -19 -1 -8 3 -5 6 6 6 11 1 17 -2 13 -5z m153 -14 c0 -13
-30 -13 -50 0 -11 7 -7 10 18 10 17 0 32 -4 32 -10z m-2640 -62 c23 -13 46
-33 51 -45 4 -12 17 -24 28 -28 10 -3 25 -20 32 -38 9 -24 13 -28 16 -14 8 30
34 22 83 -27 11 -11 20 -17 20 -13 0 8 24 -16 63 -62 15 -18 27 -27 27 -20 0
8 5 8 18 -3 9 -9 23 -13 30 -11 9 4 12 -3 10 -23 -2 -22 1 -29 14 -28 10 1 16
-2 13 -6 -9 -14 24 -32 50 -28 14 3 25 2 25 -2 0 -4 11 -5 25 -2 17 3 25 0 25
-10 0 -19 33 -58 49 -58 13 0 48 -18 73 -38 20 -17 36 -9 49 25 10 26 31 22
27 -5 -2 -12 4 -17 21 -17 14 0 26 -6 29 -13 2 -6 9 -12 17 -12 7 0 18 -7 25
-15 7 -8 21 -15 32 -15 10 0 21 -7 24 -15 7 -18 52 -20 106 -5 27 8 49 8 80
-1 24 -7 53 -11 65 -10 25 3 40 -16 24 -32 -17 -17 -13 -31 4 -17 25 21 18 -6
-18 -62 -37 -58 -118 -209 -209 -391 -33 -64 -63 -117 -67 -117 -5 0 -72 62
-149 138 -121 120 -308 272 -444 362 -20 13 -35 27 -32 31 2 4 -5 9 -16 12
-11 3 -20 11 -19 19 0 10 2 10 6 1 2 -7 9 -13 15 -13 7 0 6 5 -1 14 -7 8 -20
12 -30 9 -11 -3 -21 2 -25 12 -4 12 -2 16 7 12 13 -5 -27 87 -51 115 -6 8 -25
47 -41 86 -26 63 -28 73 -14 81 21 11 6 34 -18 28 -14 -4 -21 2 -25 21 -4 15
-10 32 -14 37 -7 11 -24 68 -40 135 -6 25 -13 53 -16 63 -7 22 -4 22 46 -5z
m2757 -4 c-3 -3 -12 -4 -19 -1 -8 3 -5 6 6 6 11 1 17 -2 13 -5z m-2597 -593
c-1 -17 -30 36 -30 53 1 16 5 12 15 -13 8 -18 15 -36 15 -40z"/>
<path d="M2156 4645 c-18 -14 -13 -41 5 -29 5 3 29 6 53 6 47 0 72 10 62 26
-9 15 -98 13 -120 -3z"/>
<path d="M2920 3305 c0 -5 5 -17 10 -25 5 -8 10 -10 10 -5 0 6 -5 17 -10 25
-5 8 -10 11 -10 5z"/>
<path d="M1189 3179 c-7 -14 -9 -55 -6 -114 4 -84 8 -97 38 -144 l34 -52 7 53
c3 29 7 80 7 113 2 77 9 105 30 106 13 0 13 2 1 6 -8 4 -23 17 -33 30 -23 29
-62 30 -78 2z"/>
<path d="M2570 2787 c-16 -16 -32 -37 -35 -48 -7 -21 -35 -25 -53 -7 -20 20
-14 -7 8 -35 11 -14 30 -27 43 -29 14 -2 23 -11 25 -24 4 -28 52 -43 79 -26 8
5 9 19 4 44 -10 43 -2 53 49 61 110 18 114 21 78 54 -59 52 -150 57 -198 10z"/>
<path d="M2988 2798 c-12 -12 -29 -22 -37 -23 -9 -1 -27 -7 -41 -12 -14 -6
-38 -15 -55 -20 -17 -5 -30 -16 -30 -24 0 -9 -6 -24 -14 -33 -12 -14 -11 -19
3 -34 9 -10 16 -23 16 -29 0 -5 7 -25 16 -42 15 -30 19 -32 53 -26 20 4 40 11
46 16 5 5 18 9 30 9 21 0 45 41 59 100 3 14 17 37 31 53 14 15 21 27 16 27 -5
0 -11 10 -13 22 -5 33 -53 43 -80 16z"/>
<path d="M2501 2586 c-34 -36 -16 -54 18 -19 26 26 31 43 12 43 -4 0 -18 -11
-30 -24z"/>
<path d="M2220 2559 c-64 -55 -80 -73 -80 -94 0 -11 -3 -31 -7 -44 -11 -43 17
-18 40 34 12 28 29 57 38 65 17 15 55 70 48 70 -2 0 -20 -14 -39 -31z"/>
<path d="M2345 2440 c-21 -24 -47 -27 -39 -5 4 8 1 15 -4 15 -6 0 -14 -9 -17
-20 -7 -22 -25 -27 -25 -8 0 9 -3 9 -12 0 -7 -7 -19 -12 -27 -12 -26 -1 -57
-80 -53 -133 4 -45 22 -68 22 -27 0 15 7 20 24 20 14 0 28 5 31 10 3 6 18 10
33 10 15 0 36 6 47 14 11 7 40 17 65 21 25 4 58 16 73 28 34 23 90 26 272 13
108 -7 177 -22 323 -67 18 -6 45 -8 60 -5 15 4 39 0 54 -8 20 -10 29 -11 38
-2 9 8 11 6 5 -11 -3 -13 -2 -23 3 -23 5 0 12 18 16 39 3 22 9 47 13 57 5 14
2 16 -15 12 -14 -4 -22 -2 -22 6 0 7 -6 21 -14 32 -14 19 -15 19 -39 -4 -22
-20 -31 -22 -78 -16 -30 4 -63 11 -74 17 -36 19 -148 33 -205 25 -31 -4 -68
-3 -86 3 -34 10 -223 7 -242 -5 -7 -4 -32 4 -57 18 -52 31 -48 31 -70 6z"/>
<path d="M3475 2411 c-3 -5 -1 -12 5 -16 5 -3 10 1 10 9 0 18 -6 21 -15 7z"/>
<path d="M3251 2314 c0 -11 3 -14 6 -6 3 7 2 16 -1 19 -3 4 -6 -2 -5 -13z"/>
<path d="M2730 2111 c0 -14 -6 -21 -20 -21 -17 0 -20 -7 -20 -39 0 -25 5 -41
15 -45 8 -3 15 -18 16 -33 0 -15 3 -22 6 -15 7 19 23 14 23 -7 0 -26 18 -37
27 -15 5 15 8 14 16 -7 9 -20 11 -21 14 -6 3 10 -2 28 -10 40 -22 35 -27 65
-10 71 11 4 13 13 8 29 -3 12 -7 28 -7 35 -2 15 -18 16 -18 0 0 -6 -3 -8 -7
-4 -5 4 -8 13 -8 19 0 5 -6 12 -12 15 -8 2 -13 -5 -13 -17z"/>
<path d="M2830 2120 c0 -5 5 -10 10 -10 6 0 10 5 10 10 0 6 -4 10 -10 10 -5 0
-10 -4 -10 -10z"/>
<path d="M2790 1886 c0 -9 5 -16 10 -16 6 0 10 4 10 9 0 6 -4 13 -10 16 -5 3
-10 -1 -10 -9z"/>
<path d="M4583 1830 c0 -25 2 -35 4 -22 2 12 2 32 0 45 -2 12 -4 2 -4 -23z"/>
<path d="M4388 1823 c12 -2 32 -2 45 0 12 2 2 4 -23 4 -25 0 -35 -2 -22 -4z"/>
<path d="M2671 1804 c0 -11 3 -14 6 -6 3 7 2 16 -1 19 -3 4 -6 -2 -5 -13z"/>
</g>
</svg>
